<?xml version="1.0" standalone="no"?>
<!DOCTYPE svg PUBLIC "-//W3C//DTD SVG 20010904//EN"
 "http://www.w3.org/TR/2001/REC-SVG-20010904/DTD/svg10.dtd">
<svg version="1.0" xmlns="http://www.w3.org/2000/svg"
 width="260.000000pt" height="260.000000pt" viewBox="0 0 260.000000 260.000000"
 preserveAspectRatio="xMidYMid meet">
<metadata>
Created by potrace 1.11, written by Peter Selinger 2001-2013
</metadata>
<g transform="translate(0.000000,260.000000) scale(0.100000,-0.100000)"
fill="#000000" stroke="none">
<path d="M1322 2077 c-63 -177 -133 -378 -157 -447 -24 -69 -62 -176 -84 -237
l-40 -113 57 0 57 0 47 138 c25 75 112 325 192 555 80 230 146 420 146 423 0
2 -24 4 -52 4 l-53 0 -113 -323z"/>
<path d="M860 2039 c-63 -27 -118 -49 -122 -49 -4 0 -33 -12 -65 -26 -63 -29
-98 -44 -156 -68 -38 -15 -39 -17 -35 -62 l3 -47 210 -88 c116 -48 217 -90
225 -93 8 -3 25 -10 38 -16 20 -8 24 -5 37 27 8 19 15 38 15 42 0 7 1 6 -213
95 -86 36 -164 69 -173 74 -18 10 -29 5 207 102 96 40 176 74 178 76 4 4 -19
65 -28 75 -3 4 -58 -15 -121 -42z"/>
<path d="M1597 2049 l-16 -39 37 -19 c20 -10 64 -28 97 -41 33 -13 64 -27 70
-32 5 -4 15 -8 21 -8 7 0 41 -13 76 -28 35 -16 74 -33 86 -38 21 -8 2 -19
-145 -79 -92 -38 -185 -77 -205 -87 l-37 -18 16 -40 c9 -22 19 -39 23 -38 3 2
115 48 247 103 234 97 241 101 245 130 7 67 10 65 -209 155 -114 47 -225 93
-248 102 l-42 17 -16 -40z"/>
<path d="M1095 1047 c-193 -50 -309 -205 -306 -407 3 -150 50 -254 147 -321
74 -51 146 -71 264 -74 58 -2 124 1 148 7 37 8 42 13 42 36 0 65 -6 70 -68 59
-88 -14 -202 -3 -264 26 -96 44 -142 112 -156 229 -18 148 47 275 168 332 36
16 65 21 140 21 84 0 101 -3 150 -28 98 -50 133 -107 136 -221 2 -86 -17 -160
-45 -176 -18 -9 -46 -8 -57 3 -3 3 -6 71 -6 151 l0 145 -36 13 c-57 20 -210
17 -250 -5 -83 -45 -115 -101 -115 -197 0 -106 43 -169 137 -200 42 -13 142
-8 158 8 7 7 22 5 44 -4 69 -29 169 -9 214 43 40 46 62 111 66 194 8 169 -72
292 -226 350 -69 26 -214 34 -285 16z m166 -314 c4 -206 6 -193 -19 -200 -33
-8 -87 5 -105 25 -9 10 -19 36 -23 59 -13 84 31 142 109 143 34 0 37 -2 38
-27z"/>
<path d="M127 1033 c-2 -5 -3 -150 -3 -323 l1 -315 73 -3 72 -3 1 53 c0 29 0
92 0 141 l-1 87 125 0 124 0 -1 -117 c-1 -182 -9 -163 72 -163 39 0 71 3 71 8
1 4 2 150 3 325 l1 317 -75 0 -75 0 2 -125 1 -125 -124 0 -124 0 1 83 c0 45 0
101 0 125 l-1 42 -69 0 c-39 0 -72 -3 -74 -7z"/>
<path d="M1670 1037 c0 -2 15 -73 45 -207 4 -18 23 -96 31 -125 3 -11 7 -30
10 -43 10 -47 76 -257 83 -265 5 -4 36 -7 71 -5 l62 3 18 50 c10 28 39 113 63
190 l44 140 12 -45 c7 -25 33 -110 60 -190 l47 -145 72 -3 c65 -3 72 -1 72 16
0 10 3 22 7 26 4 3 8 12 9 19 1 7 14 50 27 97 23 77 81 305 91 355 3 11 9 40
15 65 17 72 19 70 -64 70 -69 0 -75 -2 -79 -22 -3 -13 -11 -61 -20 -108 -23
-129 -23 -129 -41 -215 -9 -44 -20 -84 -24 -88 -5 -4 -27 56 -50 135 -24 79
-48 161 -55 183 l-13 40 -64 0 -64 0 -18 -70 c-37 -143 -89 -297 -96 -289 -8
10 -35 127 -72 317 l-23 117 -78 0 c-43 0 -78 -1 -78 -3z"/>
</g>
</svg>
